# xmcd CD database file generated by OrangeCD 5.2
#
# Track frame offsets:
#	150
#	4499
#	16751
#	28688
#	33509
#	46929
#	53472
#	56659
#	60350
#	72395
#	83417
#	94560
#	103072
#	109699
#	112712
#	117412
#	129915
#	139754
#	145159
#	154878
#	168239
#	170987
#	175902
#	184463
#	197448
#	209961
#	217057
#	225405
#	227787
#	232359
#	241196
#	254391
#	265883
#	278204
#	282239
#	286022
#	299528
#	311790
#	322263
#	333927
#
# Disc length: 4530 seconds
#
# Revision: 0
# Processed by: cddbd v1.5.1PL2 Copyright (c) Steve Scherf et al.
# Submitted via: OrangeCD 5.2
#
DISCID=5411b028
DTITLE=Don Gibson - The Singer - The Songwriter 1966 - 1969 Disc 4
DYEAR=1900
DGENRE=Country
TTITLE0=Intro Country Style # 151
TTITLE1=Oh Lonesome Me
TTITLE2=I Can't Stop Loving You
TTITLE3=Flip Flop And Bop ( Floyd Cramer)
TTITLE4=Set The Wedding ( Dottie Sills)
TTITLE5=Just A Closer Walk With Thee
TTITLE6=Outro
TTITLE7=Intro Country Style # 157
TTITLE8=Oh Lonesome Me
TTITLE9=Take Me As I Am Or Let Me Go
TTITLE10=Flip Flop And Bop ( Floyd Cramer)
TTITLE11=Blue Blue Day
TTITLE12=Just A Closer Walk With Me
TTITLE13=Outro
TTITLE14=Intro Country Style # 177
TTITLE15=Give Myself A Party
TTITLE16=Look Who's Blue
TTITLE17=Comedy ( June Carter)
TTITLE18=Sweet Temtation ( June Carter)
TTITLE19=Where No One Stands Alone
TTITLE20=Outro
TTITLE21=Intro Country Style # 188
TTITLE22=Blue Blue Day
TTITLE23=Heartbreak Avenue
TTITLE24=The Lonesome Road ( Dolores Dinning)
TTITLE25=Raggin'The Keys ( Del Wood)
TTITLE26=I'm Climbing Up The Mountain
TTITLE27=Outro
TTITLE28=Intro Country Style # 232
TTITLE29=Blue Blue Day
TTITLE30=Heartbreak Avenue
TTITLE31=Flip Flop And Bop ( Floyd Cramer)
TTITLE32=Oh Lonesome Me
TTITLE33=Outro
TTITLE34=Intro Country Style # 251
TTITLE35=Oh Lonesome Me
TTITLE36=If I Can Stay Away
TTITLE37=Am I That Easy To Forget ( Skeeter Davis)
TTITLE38=Just One Time
TTITLE39=Outro
EXTD=
EXTT0=
EXTT1=
EXTT2=
EXTT3=
EXTT4=
EXTT5=
EXTT6=
EXTT7=
EXTT8=
EXTT9=
EXTT10=
EXTT11=
EXTT12=
EXTT13=
EXTT14=
EXTT15=
EXTT16=
EXTT17=
EXTT18=
EXTT19=
EXTT20=
EXTT21=
EXTT22=
EXTT23=
EXTT24=
EXTT25=
EXTT26=
EXTT27=
EXTT28=
EXTT29=
EXTT30=
EXTT31=
EXTT32=
EXTT33=
EXTT34=
EXTT35=
EXTT36=
EXTT37=
EXTT38=
EXTT39=
PLAYORDER=
